<svg xmlns="http://www.w3.org/2000/svg" xmlns:xlink="http://www.w3.org/1999/xlink" viewBox="0 0 271.323 447.888"><defs><style>.cls-1{fill:none;}.cls-2{clip-path:url(#clip-path);}.cls-3{fill:#58595b;}.cls-4{fill:#808285;}.cls-5{fill:#665aa7;}</style><clipPath id="clip-path" transform="translate(-35.494)"><rect class="cls-1" y="129.951" width="316.026" height="70.757"/></clipPath></defs><title>alpine-watch-logo</title><g id="Layer_2" data-name="Layer 2"><g id="Layer_1-2" data-name="Layer 1"><g class="cls-2"><path class="cls-3" d="M38.741,76.533,46.98,59.865h.246l8.06,16.668H51.25l-1.025-2.352H43.669l-1.048,2.352Zm6.043-5.14h4.248l-2.1-5.062Z" transform="translate(-35.494)"/><polygon class="cls-3" points="23.292 76.533 23.292 60.367 27.15 60.367 27.15 73.066 33.449 73.066 33.449 76.533 23.292 76.533"/><path class="cls-3" d="M73.121,76.533V60.367H77.28a13.189,13.189,0,0,1,3.044.278,5.449,5.449,0,0,1,2,.936,4.528,4.528,0,0,1,1.4,1.645,4.6,4.6,0,0,1,.5,2.09,4.777,4.777,0,0,1-1.745,3.891,7.211,7.211,0,0,1-4.732,1.439c-.209,0-.365,0-.47,0s-.2-.01-.289-.018v5.91Zm4.382-13.2h-.524v4.315h.7a3.735,3.735,0,0,0,2.229-.563,1.888,1.888,0,0,0,.77-1.622,1.813,1.813,0,0,0-.759-1.617,4.417,4.417,0,0,0-2.419-.513" transform="translate(-35.494)"/><rect class="cls-3" x="53.446" y="60.367" width="3.858" height="16.166"/><polygon class="cls-3" points="63.355 76.533 63.355 59.843 63.722 59.843 73.791 69.275 73.791 60.367 77.347 60.367 77.347 77.146 77.013 77.146 66.912 67.714 66.912 76.533 63.355 76.533"/><polygon class="cls-3" points="83.332 76.533 83.332 60.367 93.288 60.367 93.288 63.701 87.078 63.701 87.078 66.621 92.396 66.621 92.396 69.933 87.078 69.933 87.078 73.133 93.378 73.133 93.378 76.533 83.332 76.533"/><polygon class="cls-4" points="19.872 100.496 13.729 83.761 16.628 83.761 20.095 93.561 23.886 83.171 24.142 83.171 27.933 93.561 31.378 83.761 34.054 83.761 27.933 100.496 27.654 100.496 23.886 90.384 20.095 100.496 19.872 100.496"/><path class="cls-4" d="M73.108,99.927H70.231l7.95-16.69H78.4l7.671,16.69H83.087l-1.305-2.876H74.435Zm2.375-5.184h5.3l-2.62-6.032Z" transform="translate(-35.494)"/><path class="cls-4" d="M89.278,96.337a12.524,12.524,0,0,0,2.408,1.25,6.031,6.031,0,0,0,2.074.4,3.207,3.207,0,0,0,2.063-.63,1.991,1.991,0,0,0,.791-1.633,2.343,2.343,0,0,0-.53-1.5,6.919,6.919,0,0,0-1.845-1.444l-1.215-.737A8.706,8.706,0,0,1,90.4,89.9a3.957,3.957,0,0,1-.775-2.412,3.9,3.9,0,0,1,1.36-3.084,5.2,5.2,0,0,1,3.546-1.187,8.89,8.89,0,0,1,2.057.239A9.692,9.692,0,0,1,98.6,84.2l-.088,2.575a13.383,13.383,0,0,0-2.125-.965,5.278,5.278,0,0,0-1.644-.306,2.792,2.792,0,0,0-1.756.5,1.623,1.623,0,0,0-.641,1.355,1.819,1.819,0,0,0,.468,1.214,7.2,7.2,0,0,0,1.739,1.3l1.171.679a9.566,9.566,0,0,1,2.888,2.392,4.535,4.535,0,0,1,.858,2.726,4.405,4.405,0,0,1-1.522,3.49,5.954,5.954,0,0,1-4.053,1.326,10.537,10.537,0,0,1-2.257-.24,9.607,9.607,0,0,1-2.1-.718Z" transform="translate(-35.494)"/><polygon class="cls-4" points="69.585 99.927 69.585 83.762 72.395 83.762 72.395 90.206 80.11 90.206 80.11 83.762 82.897 83.762 82.897 99.927 80.11 99.927 80.11 92.691 72.395 92.691 72.395 99.927 69.585 99.927"/><path class="cls-5" d="M122.016,28.75c0-11.456-15.318-20.868-34.684-21.706L84.543,0,81.755,7.041C62.365,7.866,47.02,17.284,47.02,28.75c0,8.164,7.783,15.289,19.262,19.016l-1.763,4.65h5.695l1.231-3.259a61.962,61.962,0,0,0,13.073,1.368,61.965,61.965,0,0,0,13.12-1.378l1.234,3.269h5.92l-1.815-4.724c11.356-3.746,19.039-10.831,19.039-18.942m-1.151,0a12.7,12.7,0,0,1-1.757,6.327L108.854,20.4h0l-4.413,3.5-5.2-7.523L92.73,21.035,88,8.735l-.2-.521c18.509.944,33.069,9.792,33.069,20.536M84.543,14.47l3.695,9.785L78.105,31.52ZM81.292,8.212l-.207.523L75.009,24.756,69.5,16.7l0,.007V16.7l-7.959,5.883L60.047,20.4,48.229,29.882c-.036-.374-.057-.752-.057-1.132C48.172,18,62.757,9.142,81.292,8.212M50.8,36.431l9.236-13.219,4.741,6.934.693-1.819-1.055-1.543,5.077-7.269,4.829,7.064-7.635,20.13c-7.145-2.294-12.79-5.917-15.886-10.278M84.518,49.373a61.384,61.384,0,0,1-12.666-1.294l1.779-4.709,15.9-15.7,7.7,20.4a61.29,61.29,0,0,1-12.712,1.3m18.053-2.735L93.7,23.555l5.084-5.019,5.71,8.243-1.059,1.548.695,1.818,4.741-6.932,9.3,13.316c-3.078,4.272-8.611,7.829-15.6,10.109" transform="translate(-35.494)"/><path class="cls-3" d="M115.91,177.035l8.239-16.668h.246l8.06,16.668h-4.036l-1.025-2.352h-6.556l-1.048,2.352Zm6.043-5.14H126.2l-2.1-5.062Z" transform="translate(-35.494)"/><polygon class="cls-3" points="100.461 177.035 100.461 160.869 104.319 160.869 104.319 173.567 110.618 173.567 110.618 177.035 100.461 177.035"/><path class="cls-3" d="M150.29,177.035V160.869h4.159a13.2,13.2,0,0,1,3.044.278,5.449,5.449,0,0,1,2,.936,4.528,4.528,0,0,1,1.4,1.645,4.6,4.6,0,0,1,.5,2.09,4.777,4.777,0,0,1-1.745,3.891,7.212,7.212,0,0,1-4.733,1.439c-.208,0-.364,0-.469,0s-.2-.01-.289-.018v5.91Zm4.382-13.2h-.524v4.315h.7a3.736,3.736,0,0,0,2.23-.563,1.888,1.888,0,0,0,.77-1.622,1.813,1.813,0,0,0-.759-1.617,4.417,4.417,0,0,0-2.419-.513" transform="translate(-35.494)"/><rect class="cls-3" x="130.615" y="160.868" width="3.858" height="16.166"/><polygon class="cls-3" points="140.524 177.035 140.524 160.345 140.891 160.345 150.96 169.777 150.96 160.869 154.516 160.869 154.516 177.648 154.181 177.648 144.081 168.216 144.081 177.035 140.524 177.035"/><polygon class="cls-3" points="160.501 177.035 160.501 160.869 170.457 160.869 170.457 164.203 164.247 164.203 164.247 167.123 169.565 167.123 169.565 170.435 164.247 170.435 164.247 173.635 170.547 173.635 170.547 177.035 160.501 177.035"/><polygon class="cls-4" points="188.949 177.603 182.806 160.868 185.704 160.868 189.172 170.668 192.962 160.278 193.219 160.278 197.01 170.668 200.455 160.868 203.131 160.868 197.01 177.603 196.731 177.603 192.962 167.491 189.172 177.603 188.949 177.603"/><path class="cls-4" d="M242.186,177.034h-2.877l7.95-16.69h.223l7.671,16.69h-2.988l-1.3-2.876h-7.347Zm2.375-5.184h5.3l-2.62-6.032Z" transform="translate(-35.494)"/><path class="cls-4" d="M258.355,173.445a12.514,12.514,0,0,0,2.408,1.249,6.03,6.03,0,0,0,2.073.4,3.21,3.21,0,0,0,2.064-.63,1.991,1.991,0,0,0,.791-1.633,2.343,2.343,0,0,0-.53-1.5,6.935,6.935,0,0,0-1.845-1.444l-1.215-.736a8.736,8.736,0,0,1-2.625-2.146,3.963,3.963,0,0,1-.776-2.413,3.9,3.9,0,0,1,1.361-3.084,5.2,5.2,0,0,1,3.546-1.187,8.837,8.837,0,0,1,2.057.24,9.63,9.63,0,0,1,2.011.742l-.088,2.575a13.368,13.368,0,0,0-2.125-.964,5.253,5.253,0,0,0-1.644-.307,2.792,2.792,0,0,0-1.756.5,1.62,1.62,0,0,0-.641,1.354,1.819,1.819,0,0,0,.468,1.215,7.226,7.226,0,0,0,1.739,1.294l1.171.679a9.566,9.566,0,0,1,2.888,2.392,4.542,4.542,0,0,1,.858,2.726,4.405,4.405,0,0,1-1.522,3.49,5.949,5.949,0,0,1-4.053,1.326,10.537,10.537,0,0,1-2.257-.24,9.607,9.607,0,0,1-2.1-.718Z" transform="translate(-35.494)"/><polygon class="cls-4" points="238.663 177.035 238.663 160.869 241.473 160.869 241.473 167.313 249.188 167.313 249.188 160.869 251.975 160.869 251.975 177.035 249.188 177.035 249.188 169.799 241.473 169.799 241.473 177.035 238.663 177.035"/><path class="cls-5" d="M109.724,169.606c0-11.34-15.161-20.655-34.329-21.486l-2.76-6.972-2.759,6.969c-19.193.817-34.382,10.139-34.382,21.489,0,8.081,7.7,15.133,19.066,18.822l-1.746,4.6h5.638L59.67,189.8a62.5,62.5,0,0,0,25.926-.01l1.221,3.236h5.86l-1.8-4.676c11.241-3.707,18.844-10.72,18.844-18.748m-1.138,0a12.576,12.576,0,0,1-1.739,6.262L96.7,161.339h0L92.33,164.8l-5.15-7.446-6.442,4.617L76.058,149.8l-.2-.517c18.322.934,32.732,9.691,32.732,20.327M72.635,155.471l3.657,9.685-10.03,7.192Zm-3.218-6.194-.2.519L63.2,165.652l-5.448-7.972-.005.008v-.008L49.868,163.5l-1.479-2.164-11.7,9.388c-.036-.372-.057-.746-.057-1.121,0-10.645,14.435-19.408,32.782-20.329M39.233,177.209l9.142-13.084,4.692,6.862.686-1.8-1.044-1.526,5.026-7.195,4.778,6.992-7.556,19.925c-7.072-2.271-12.659-5.858-15.724-10.173m33.378,12.81a60.732,60.732,0,0,1-12.538-1.282l1.76-4.661L77.57,168.54l7.623,20.187a60.709,60.709,0,0,1-12.582,1.292m17.868-2.708L81.7,164.464l5.032-4.967,5.651,8.159-1.047,1.53.686,1.8,4.694-6.861,9.208,13.18c-3.048,4.229-8.525,7.75-15.442,10.006" transform="translate(-35.494)"/><path class="cls-3" d="M276.616,77.185l8.239-16.668h.246l8.06,16.668h-4.036L288.1,74.833h-6.556L280.5,77.185Zm6.043-5.14h4.248l-2.1-5.062Z" transform="translate(-35.494)"/><polygon class="cls-3" points="261.167 77.185 261.167 61.019 265.024 61.019 265.024 73.717 271.323 73.717 271.323 77.185 261.167 77.185"/><path d="M38.741,331.391l8.239-16.668h.246l8.06,16.668H51.25l-1.025-2.352H43.669l-1.048,2.352Zm6.043-5.14h4.248l-2.1-5.062Z" transform="translate(-35.494)"/><polygon points="23.292 331.391 23.292 315.225 27.15 315.225 27.15 327.923 33.449 327.923 33.449 331.391 23.292 331.391"/><path d="M73.121,331.392V315.226H77.28a13.189,13.189,0,0,1,3.044.278,5.449,5.449,0,0,1,2,.936,4.528,4.528,0,0,1,1.4,1.645,4.6,4.6,0,0,1,.5,2.09,4.777,4.777,0,0,1-1.745,3.891,7.211,7.211,0,0,1-4.732,1.439c-.209,0-.365,0-.47,0s-.2-.01-.289-.018v5.91Zm4.382-13.2h-.524v4.315h.7a3.735,3.735,0,0,0,2.229-.563,1.888,1.888,0,0,0,.77-1.622,1.813,1.813,0,0,0-.759-1.617,4.417,4.417,0,0,0-2.419-.513" transform="translate(-35.494)"/><rect x="53.446" y="315.225" width="3.858" height="16.166"/><polygon points="63.355 331.391 63.355 314.701 63.722 314.701 73.791 324.133 73.791 315.225 77.347 315.225 77.347 332.004 77.013 332.004 66.912 322.572 66.912 331.391 63.355 331.391"/><polygon points="83.332 331.391 83.332 315.225 93.288 315.225 93.288 318.559 87.078 318.559 87.078 321.479 92.396 321.479 92.396 324.791 87.078 324.791 87.078 327.991 93.378 327.991 93.378 331.391 83.332 331.391"/><polygon points="19.872 355.354 13.729 338.619 16.628 338.619 20.095 348.419 23.886 338.029 24.142 338.029 27.933 348.419 31.378 338.619 34.054 338.619 27.933 355.354 27.654 355.354 23.886 345.242 20.095 355.354 19.872 355.354"/><path d="M73.108,354.785H70.231l7.95-16.69H78.4l7.671,16.69H83.087l-1.305-2.876H74.435Zm2.375-5.184h5.3l-2.62-6.032Z" transform="translate(-35.494)"/><path d="M89.278,351.2a12.514,12.514,0,0,0,2.408,1.249,6.031,6.031,0,0,0,2.074.4,3.207,3.207,0,0,0,2.063-.63,1.991,1.991,0,0,0,.791-1.633,2.343,2.343,0,0,0-.53-1.5,6.919,6.919,0,0,0-1.845-1.444l-1.215-.736a8.736,8.736,0,0,1-2.625-2.146,3.962,3.962,0,0,1-.775-2.413,3.9,3.9,0,0,1,1.36-3.084,5.2,5.2,0,0,1,3.546-1.187,8.837,8.837,0,0,1,2.057.24,9.63,9.63,0,0,1,2.011.742l-.088,2.575a13.368,13.368,0,0,0-2.125-.964,5.253,5.253,0,0,0-1.644-.307,2.792,2.792,0,0,0-1.756.5,1.62,1.62,0,0,0-.641,1.354,1.824,1.824,0,0,0,.468,1.215,7.226,7.226,0,0,0,1.739,1.294l1.171.679a9.566,9.566,0,0,1,2.888,2.392,4.535,4.535,0,0,1,.858,2.726,4.405,4.405,0,0,1-1.522,3.49,5.949,5.949,0,0,1-4.053,1.326,10.537,10.537,0,0,1-2.257-.24,9.607,9.607,0,0,1-2.1-.718Z" transform="translate(-35.494)"/><polygon points="69.585 354.786 69.585 338.62 72.395 338.62 72.395 345.064 80.11 345.064 80.11 338.62 82.897 338.62 82.897 354.786 80.11 354.786 80.11 347.55 72.395 347.55 72.395 354.786 69.585 354.786"/><path d="M122.016,283.608c0-11.456-15.318-20.868-34.684-21.706l-2.789-7.044L81.755,261.9c-19.39.825-34.735,10.243-34.735,21.709,0,8.164,7.783,15.289,19.262,19.016l-1.763,4.65h5.695l1.231-3.26a63.17,63.17,0,0,0,26.193-.009l1.234,3.269h5.92l-1.815-4.723c11.356-3.747,19.039-10.832,19.039-18.943m-1.151,0a12.7,12.7,0,0,1-1.757,6.327l-10.254-14.679h0l-4.413,3.5-5.2-7.523-6.507,4.665L88,263.593l-.2-.521c18.509.944,33.069,9.792,33.069,20.536m-36.322-14.28,3.695,9.785-10.133,7.265Zm-3.251-6.258-.207.523-6.076,16.021-5.5-8.055,0,.007v-.007l-7.959,5.883-1.494-2.186L48.229,284.74c-.036-.374-.057-.752-.057-1.132,0-10.755,14.585-19.608,33.12-20.538M50.8,291.289l9.236-13.219L64.774,285l.693-1.819-1.055-1.543,5.077-7.269,4.829,7.064-7.635,20.13c-7.145-2.294-12.79-5.917-15.886-10.278m33.721,12.942a61.384,61.384,0,0,1-12.666-1.294l1.779-4.709,15.9-15.7,7.7,20.395a61.29,61.29,0,0,1-12.712,1.305m18.053-2.735L93.7,278.413l5.084-5.019,5.71,8.243-1.059,1.548.695,1.818,4.741-6.932,9.3,13.316c-3.078,4.272-8.611,7.829-15.6,10.109" transform="translate(-35.494)"/><path d="M115.91,431.893l8.239-16.668h.246l8.06,16.668h-4.036l-1.025-2.352h-6.556l-1.048,2.352Zm6.043-5.14H126.2l-2.1-5.062Z" transform="translate(-35.494)"/><polygon points="100.461 431.893 100.461 415.727 104.319 415.727 104.319 428.425 110.618 428.425 110.618 431.893 100.461 431.893"/><path d="M150.29,431.893V415.727h4.159a13.2,13.2,0,0,1,3.044.278,5.449,5.449,0,0,1,2,.936,4.528,4.528,0,0,1,1.4,1.645,4.6,4.6,0,0,1,.5,2.09,4.777,4.777,0,0,1-1.745,3.891,7.217,7.217,0,0,1-4.733,1.439c-.208,0-.364,0-.469,0s-.2-.01-.289-.018v5.91Zm4.382-13.2h-.524v4.315h.7a3.736,3.736,0,0,0,2.23-.563,1.888,1.888,0,0,0,.77-1.622,1.813,1.813,0,0,0-.759-1.617,4.417,4.417,0,0,0-2.419-.513" transform="translate(-35.494)"/><rect x="130.615" y="415.727" width="3.858" height="16.166"/><polygon points="140.524 431.893 140.524 415.203 140.891 415.203 150.96 424.635 150.96 415.727 154.516 415.727 154.516 432.506 154.181 432.506 144.081 423.074 144.081 431.893 140.524 431.893"/><polygon points="160.501 431.893 160.501 415.727 170.457 415.727 170.457 419.061 164.247 419.061 164.247 421.981 169.565 421.981 169.565 425.293 164.247 425.293 164.247 428.493 170.547 428.493 170.547 431.893 160.501 431.893"/><polygon points="188.949 432.462 182.806 415.727 185.704 415.727 189.172 425.527 192.962 415.137 193.219 415.137 197.01 425.527 200.455 415.727 203.131 415.727 197.01 432.462 196.731 432.462 192.962 422.35 189.172 432.462 188.949 432.462"/><path d="M242.186,431.893h-2.877l7.95-16.69h.223l7.671,16.69h-2.988l-1.3-2.876h-7.347Zm2.375-5.184h5.3l-2.62-6.032Z" transform="translate(-35.494)"/><path d="M258.355,428.3a12.514,12.514,0,0,0,2.408,1.249,6.03,6.03,0,0,0,2.073.4,3.21,3.21,0,0,0,2.064-.63,1.991,1.991,0,0,0,.791-1.633,2.343,2.343,0,0,0-.53-1.5,6.935,6.935,0,0,0-1.845-1.444l-1.215-.736a8.736,8.736,0,0,1-2.625-2.146,3.963,3.963,0,0,1-.776-2.413,3.9,3.9,0,0,1,1.361-3.084,5.2,5.2,0,0,1,3.546-1.187,8.837,8.837,0,0,1,2.057.24,9.63,9.63,0,0,1,2.011.742l-.088,2.575a13.368,13.368,0,0,0-2.125-.964,5.253,5.253,0,0,0-1.644-.307,2.792,2.792,0,0,0-1.756.5,1.62,1.62,0,0,0-.641,1.354,1.819,1.819,0,0,0,.468,1.215,7.226,7.226,0,0,0,1.739,1.294l1.171.679a9.566,9.566,0,0,1,2.888,2.392,4.542,4.542,0,0,1,.858,2.726,4.405,4.405,0,0,1-1.522,3.49,5.949,5.949,0,0,1-4.053,1.326,10.537,10.537,0,0,1-2.257-.24,9.607,9.607,0,0,1-2.1-.718Z" transform="translate(-35.494)"/><polygon points="238.663 431.893 238.663 415.727 241.473 415.727 241.473 422.171 249.188 422.171 249.188 415.727 251.975 415.727 251.975 431.893 249.188 431.893 249.188 424.657 241.473 424.657 241.473 431.893 238.663 431.893"/><path d="M109.724,424.463c0-11.339-15.161-20.655-34.329-21.486l-2.76-6.971-2.759,6.969c-19.193.817-34.382,10.138-34.382,21.488,0,8.081,7.7,15.133,19.066,18.822l-1.746,4.6h5.638l1.218-3.227a62.527,62.527,0,0,0,25.926-.009l1.221,3.236h5.86l-1.8-4.676c11.241-3.708,18.844-10.72,18.844-18.749m-1.138,0a12.573,12.573,0,0,1-1.739,6.262L96.7,416.2l-4.368,3.458-5.15-7.446-6.442,4.618-4.68-12.174-.2-.516c18.322.934,32.732,9.691,32.732,20.326M72.635,410.329l3.657,9.685-10.03,7.191Zm-3.218-6.194-.2.518L63.2,420.51l-5.448-7.973-.005.008v-.008l-7.876,5.823L48.389,416.2l-11.7,9.388c-.036-.372-.057-.746-.057-1.122,0-10.645,14.435-19.408,32.782-20.328M39.233,432.066l9.142-13.084,4.692,6.862.686-1.8-1.044-1.527,5.026-7.195,4.778,6.992-7.556,19.925c-7.072-2.27-12.659-5.857-15.724-10.173m33.378,12.81A60.8,60.8,0,0,1,60.073,443.6l1.76-4.661L77.57,423.4l7.623,20.188a60.711,60.711,0,0,1-12.582,1.291m17.868-2.707L81.7,419.322l5.032-4.968,5.651,8.159-1.047,1.531.686,1.8,4.694-6.861,9.208,13.18c-3.048,4.228-8.525,7.749-15.442,10.006" transform="translate(-35.494)"/><path d="M276.616,332.043l8.239-16.668h.246l8.06,16.668h-4.036l-1.025-2.352h-6.556l-1.048,2.352Zm6.043-5.14h4.248l-2.1-5.062Z" transform="translate(-35.494)"/><polygon points="261.167 332.043 261.167 315.877 265.024 315.877 265.024 328.575 271.323 328.575 271.323 332.043 261.167 332.043"/></g></g></g></svg>